<?xml version="1.0" encoding="utf-8"?>
<svg version="1.1" xmlns:xlink="http://www.w3.org/1999/xlink" width="12px" height="12px" viewBox="822 238  12 12" xmlns="http://www.w3.org/2000/svg">
  <path d="M 828 238  C 831.36 238  834 240.64  834 244  C 834 247.36  831.36 250  828 250  C 824.64 250  822 247.36  822 244  C 822 240.64  824.64 238  828 238  Z " fill-rule="nonzero" fill="#ffffff" stroke="none" />
  <path d="M 828 238.5  C 831.08 238.5  833.5 240.92  833.5 244  C 833.5 247.08  831.08 249.5  828 249.5  C 824.92 249.5  822.5 247.08  822.5 244  C 822.5 240.92  824.92 238.5  828 238.5  Z " stroke-width="1" stroke="#797979" fill="none" />
  <path d="M 828 247  C 826.32 247  825 245.68  825 244  C 825 242.32  826.32 241  828 241  C 829.68 241  831 242.32  831 244  C 831 245.68  829.68 247  828 247  " fill-rule="nonzero" fill="#797979" stroke="none" />
</svg>