<?xml version="1.0" encoding="utf-8"?>
<svg version="1.1" xmlns:xlink="http://www.w3.org/1999/xlink" width="12px" height="12px" viewBox="820 320  12 12" xmlns="http://www.w3.org/2000/svg">
  <path d="M 826 320  C 829.36 320  832 322.64  832 326  C 832 329.36  829.36 332  826 332  C 822.64 332  820 329.36  820 326  C 820 322.64  822.64 320  826 320  Z " fill-rule="nonzero" fill="#ffffff" stroke="none" />
  <path d="M 826 320.5  C 829.08 320.5  831.5 322.92  831.5 326  C 831.5 329.08  829.08 331.5  826 331.5  C 822.92 331.5  820.5 329.08  820.5 326  C 820.5 322.92  822.92 320.5  826 320.5  Z " stroke-width="1" stroke="#797979" fill="none" />
  <path d="M 826 329  C 824.32 329  823 327.68  823 326  C 823 324.32  824.32 323  826 323  C 827.68 323  829 324.32  829 326  C 829 327.68  827.68 329  826 329  " fill-rule="nonzero" fill="#797979" stroke="none" />
</svg>