<?xml version="1.0" encoding="utf-8"?>
<svg version="1.1" xmlns:xlink="http://www.w3.org/1999/xlink" width="12px" height="12px" viewBox="821 443  12 12" xmlns="http://www.w3.org/2000/svg">
  <path d="M 827 443  C 830.36 443  833 445.64  833 449  C 833 452.36  830.36 455  827 455  C 823.64 455  821 452.36  821 449  C 821 445.64  823.64 443  827 443  Z " fill-rule="nonzero" fill="#ffffff" stroke="none" />
  <path d="M 827 443.5  C 830.08 443.5  832.5 445.92  832.5 449  C 832.5 452.08  830.08 454.5  827 454.5  C 823.92 454.5  821.5 452.08  821.5 449  C 821.5 445.92  823.92 443.5  827 443.5  Z " stroke-width="1" stroke="#797979" fill="none" />
  <path d="M 827 452  C 825.32 452  824 450.68  824 449  C 824 447.32  825.32 446  827 446  C 828.68 446  830 447.32  830 449  C 830 450.68  828.68 452  827 452  " fill-rule="nonzero" fill="#797979" stroke="none" />
</svg>