<?xml version="1.0" encoding="utf-8"?>
<svg version="1.1" xmlns:xlink="http://www.w3.org/1999/xlink" width="35px" height="26px" xmlns="http://www.w3.org/2000/svg">
  <g transform="matrix(1 0 0 1 -793 -448 )">
    <path d="M 34.3677419354839 3.58922558922563  C 34.7892473118279 3.99775533108868  35 4.49382716049388  35 5.07744107744111  C 35 5.66105499438834  34.7892473118279 6.15712682379353  34.3677419354839 6.56565656565658  L 18.0193548387097 22.4107744107744  L 14.9483870967742 25.3872053872054  C 14.5268817204301 25.7957351290685  14.0150537634408 26  13.4129032258064 26  C 12.810752688172 26  12.2989247311828 25.7957351290685  11.8774193548387 25.3872053872054  L 8.80645161290317 22.4107744107744  L 0.632258064516122 14.4882154882155  C 0.210752688172079 14.0796857463524  0 13.5836139169472  0 13  C 0 12.4163860830528  0.210752688172079 11.9203142536476  0.632258064516122 11.5117845117845  L 3.70322580645166 8.53535353535358  C 4.1247311827957 8.12682379349042  4.63655913978494 7.92255892255889  5.23870967741937 7.92255892255889  C 5.84086021505379 7.92255892255889  6.35268817204303 8.12682379349042  6.77419354838707 8.53535353535358  L 13.4129032258064 14.9915824915825  L 28.2258064516129 0.612794612794573  C 28.647311827957 0.204264870931524  29.1591397849462 0  29.7612903225806 0  C 30.3634408602151 0  30.8752688172043 0.204264870931524  31.2967741935483 0.612794612794573  L 34.3677419354839 3.58922558922563  Z " fill-rule="nonzero" fill="#000000" stroke="none" transform="matrix(1 0 0 1 793 448 )" />
  </g>
</svg>