<?xml version="1.0" encoding="utf-8"?>
<svg version="1.1" xmlns:xlink="http://www.w3.org/1999/xlink" width="12px" height="12px" viewBox="727 220  12 12" xmlns="http://www.w3.org/2000/svg">
  <path d="M 733 220  C 736.36 220  739 222.64  739 226  C 739 229.36  736.36 232  733 232  C 729.64 232  727 229.36  727 226  C 727 222.64  729.64 220  733 220  Z " fill-rule="nonzero" fill="#ffffff" stroke="none" />
  <path d="M 733 220.5  C 736.08 220.5  738.5 222.92  738.5 226  C 738.5 229.08  736.08 231.5  733 231.5  C 729.92 231.5  727.5 229.08  727.5 226  C 727.5 222.92  729.92 220.5  733 220.5  Z " stroke-width="1" stroke="#797979" fill="none" />
  <path d="M 733 229  C 731.32 229  730 227.68  730 226  C 730 224.32  731.32 223  733 223  C 734.68 223  736 224.32  736 226  C 736 227.68  734.68 229  733 229  " fill-rule="nonzero" fill="#797979" stroke="none" />
</svg>