<?xml version="1.0" encoding="utf-8"?>
<svg version="1.1" xmlns:xlink="http://www.w3.org/1999/xlink" width="12px" height="12px" viewBox="727 267  12 12" xmlns="http://www.w3.org/2000/svg">
  <path d="M 733 267  C 736.36 267  739 269.64  739 273  C 739 276.36  736.36 279  733 279  C 729.64 279  727 276.36  727 273  C 727 269.64  729.64 267  733 267  Z " fill-rule="nonzero" fill="#ffffff" stroke="none" />
  <path d="M 733 267.5  C 736.08 267.5  738.5 269.92  738.5 273  C 738.5 276.08  736.08 278.5  733 278.5  C 729.92 278.5  727.5 276.08  727.5 273  C 727.5 269.92  729.92 267.5  733 267.5  Z " stroke-width="1" stroke="#797979" fill="none" />
  <path d="M 733 276  C 731.32 276  730 274.68  730 273  C 730 271.32  731.32 270  733 270  C 734.68 270  736 271.32  736 273  C 736 274.68  734.68 276  733 276  " fill-rule="nonzero" fill="#797979" stroke="none" />
</svg>