<?xml version="1.0" encoding="utf-8"?>
<svg version="1.1" xmlns:xlink="http://www.w3.org/1999/xlink" width="12px" height="12px" viewBox="737 886  12 12" xmlns="http://www.w3.org/2000/svg">
  <path d="M 743 886  C 746.36 886  749 888.64  749 892  C 749 895.36  746.36 898  743 898  C 739.64 898  737 895.36  737 892  C 737 888.64  739.64 886  743 886  Z " fill-rule="nonzero" fill="#ffffff" stroke="none" />
  <path d="M 743 886.5  C 746.08 886.5  748.5 888.92  748.5 892  C 748.5 895.08  746.08 897.5  743 897.5  C 739.92 897.5  737.5 895.08  737.5 892  C 737.5 888.92  739.92 886.5  743 886.5  Z " stroke-width="1" stroke="#797979" fill="none" />
  <path d="M 743 895  C 741.32 895  740 893.68  740 892  C 740 890.32  741.32 889  743 889  C 744.68 889  746 890.32  746 892  C 746 893.68  744.68 895  743 895  " fill-rule="nonzero" fill="#797979" stroke="none" />
</svg>