<?xml version="1.0" encoding="utf-8"?>
<svg version="1.1" xmlns:xlink="http://www.w3.org/1999/xlink" width="12px" height="12px" viewBox="737 933  12 12" xmlns="http://www.w3.org/2000/svg">
  <path d="M 743 933  C 746.36 933  749 935.64  749 939  C 749 942.36  746.36 945  743 945  C 739.64 945  737 942.36  737 939  C 737 935.64  739.64 933  743 933  Z " fill-rule="nonzero" fill="#ffffff" stroke="none" />
  <path d="M 743 933.5  C 746.08 933.5  748.5 935.92  748.5 939  C 748.5 942.08  746.08 944.5  743 944.5  C 739.92 944.5  737.5 942.08  737.5 939  C 737.5 935.92  739.92 933.5  743 933.5  Z " stroke-width="1" stroke="#797979" fill="none" />
  <path d="M 743 942  C 741.32 942  740 940.68  740 939  C 740 937.32  741.32 936  743 936  C 744.68 936  746 937.32  746 939  C 746 940.68  744.68 942  743 942  " fill-rule="nonzero" fill="#797979" stroke="none" />
</svg>