<?xml version="1.0" encoding="utf-8"?>
<svg version="1.1" xmlns:xlink="http://www.w3.org/1999/xlink" width="12px" height="12px" viewBox="737 907  12 12" xmlns="http://www.w3.org/2000/svg">
  <path d="M 743 907  C 746.36 907  749 909.64  749 913  C 749 916.36  746.36 919  743 919  C 739.64 919  737 916.36  737 913  C 737 909.64  739.64 907  743 907  Z " fill-rule="nonzero" fill="#ffffff" stroke="none" />
  <path d="M 743 907.5  C 746.08 907.5  748.5 909.92  748.5 913  C 748.5 916.08  746.08 918.5  743 918.5  C 739.92 918.5  737.5 916.08  737.5 913  C 737.5 909.92  739.92 907.5  743 907.5  Z " stroke-width="1" stroke="#797979" fill="none" />
  <path d="M 743 916  C 741.32 916  740 914.68  740 913  C 740 911.32  741.32 910  743 910  C 744.68 910  746 911.32  746 913  C 746 914.68  744.68 916  743 916  " fill-rule="nonzero" fill="#797979" stroke="none" />
</svg>