<?xml version="1.0" encoding="utf-8"?>
<svg version="1.1" xmlns:xlink="http://www.w3.org/1999/xlink" width="12px" height="12px" viewBox="737 999  12 12" xmlns="http://www.w3.org/2000/svg">
  <path d="M 743 999  C 746.36 999  749 1001.64  749 1005  C 749 1008.36  746.36 1011  743 1011  C 739.64 1011  737 1008.36  737 1005  C 737 1001.64  739.64 999  743 999  Z " fill-rule="nonzero" fill="#ffffff" stroke="none" />
  <path d="M 743 999.5  C 746.08 999.5  748.5 1001.92  748.5 1005  C 748.5 1008.08  746.08 1010.5  743 1010.5  C 739.92 1010.5  737.5 1008.08  737.5 1005  C 737.5 1001.92  739.92 999.5  743 999.5  Z " stroke-width="1" stroke="#797979" fill="none" />
  <path d="M 743 1008  C 741.32 1008  740 1006.68  740 1005  C 740 1003.32  741.32 1002  743 1002  C 744.68 1002  746 1003.32  746 1005  C 746 1006.68  744.68 1008  743 1008  " fill-rule="nonzero" fill="#797979" stroke="none" />
</svg>