<?xml version="1.0" encoding="utf-8"?>
<svg version="1.1" xmlns:xlink="http://www.w3.org/1999/xlink" width="12px" height="12px" viewBox="737 1025  12 12" xmlns="http://www.w3.org/2000/svg">
  <path d="M 743 1025  C 746.36 1025  749 1027.64  749 1031  C 749 1034.36  746.36 1037  743 1037  C 739.64 1037  737 1034.36  737 1031  C 737 1027.64  739.64 1025  743 1025  Z " fill-rule="nonzero" fill="#ffffff" stroke="none" />
  <path d="M 743 1025.5  C 746.08 1025.5  748.5 1027.92  748.5 1031  C 748.5 1034.08  746.08 1036.5  743 1036.5  C 739.92 1036.5  737.5 1034.08  737.5 1031  C 737.5 1027.92  739.92 1025.5  743 1025.5  Z " stroke-width="1" stroke="#797979" fill="none" />
  <path d="M 743 1034  C 741.32 1034  740 1032.68  740 1031  C 740 1029.32  741.32 1028  743 1028  C 744.68 1028  746 1029.32  746 1031  C 746 1032.68  744.68 1034  743 1034  " fill-rule="nonzero" fill="#797979" stroke="none" />
</svg>