<?xml version="1.0" encoding="utf-8"?>
<svg version="1.1" xmlns:xlink="http://www.w3.org/1999/xlink" width="58px" height="52px" xmlns="http://www.w3.org/2000/svg">
  <g transform="matrix(1 0 0 1 -64 -626 )">
    <path d="M 93 626.5  C 108.96 626.5  121.5 637.72  121.5 652  C 121.5 666.28  108.96 677.5  93 677.5  C 77.04 677.5  64.5 666.28  64.5 652  C 64.5 637.72  77.04 626.5  93 626.5  Z " fill-rule="nonzero" fill="#ffffff" stroke="none" />
    <path d="M 93 626.5  C 108.96 626.5  121.5 637.72  121.5 652  C 121.5 666.28  108.96 677.5  93 677.5  C 77.04 677.5  64.5 666.28  64.5 652  C 64.5 637.72  77.04 626.5  93 626.5  Z " stroke-width="1" stroke-dasharray="3,1" stroke="#797979" fill="none" stroke-dashoffset="0.5" />
  </g>
</svg>