<?xml version="1.0" encoding="utf-8"?>
<svg version="1.1" xmlns:xlink="http://www.w3.org/1999/xlink" width="58px" height="52px" xmlns="http://www.w3.org/2000/svg">
  <g transform="matrix(1 0 0 1 -151 -626 )">
    <path d="M 180 626.5  C 195.96 626.5  208.5 637.72  208.5 652  C 208.5 666.28  195.96 677.5  180 677.5  C 164.04 677.5  151.5 666.28  151.5 652  C 151.5 637.72  164.04 626.5  180 626.5  Z " fill-rule="nonzero" fill="#cccccc" stroke="none" />
    <path d="M 180 626.5  C 195.96 626.5  208.5 637.72  208.5 652  C 208.5 666.28  195.96 677.5  180 677.5  C 164.04 677.5  151.5 666.28  151.5 652  C 151.5 637.72  164.04 626.5  180 626.5  Z " stroke-width="1" stroke-dasharray="3,1" stroke="#797979" fill="none" stroke-dashoffset="0.5" />
  </g>
</svg>