<?xml version="1.0" encoding="utf-8"?>
<svg version="1.1" xmlns:xlink="http://www.w3.org/1999/xlink" width="59px" height="57px" xmlns="http://www.w3.org/2000/svg">
  <g transform="matrix(1 0 0 1 -186 -394 )">
    <path d="M 215.5 394  C 232.02 394  245 406.54  245 422.5  C 245 438.46  232.02 451  215.5 451  C 198.98 451  186 438.46  186 422.5  C 186 406.54  198.98 394  215.5 394  Z " fill-rule="nonzero" fill="#ffffff" stroke="none" />
    <path d="M 215.5 394.5  C 231.74 394.5  244.5 406.82  244.5 422.5  C 244.5 438.18  231.74 450.5  215.5 450.5  C 199.26 450.5  186.5 438.18  186.5 422.5  C 186.5 406.82  199.26 394.5  215.5 394.5  Z " stroke-width="1" stroke="#797979" fill="none" />
  </g>
</svg>