<?xml version="1.0" encoding="utf-8"?>
<svg version="1.1" xmlns:xlink="http://www.w3.org/1999/xlink" width="7px" height="8px" xmlns="http://www.w3.org/2000/svg">
  <g transform="matrix(1 0 0 1 -212 -419 )">
    <path d="M 215.5 419  C 217.46 419  219 420.76  219 423  C 219 425.24  217.46 427  215.5 427  C 213.54 427  212 425.24  212 423  C 212 420.76  213.54 419  215.5 419  Z " fill-rule="nonzero" fill="#0099ff" stroke="none" />
    <path d="M 215.5 419.5  C 217.18 419.5  218.5 421.04  218.5 423  C 218.5 424.96  217.18 426.5  215.5 426.5  C 213.82 426.5  212.5 424.96  212.5 423  C 212.5 421.04  213.82 419.5  215.5 419.5  Z " stroke-width="1" stroke="#000000" fill="none" />
  </g>
</svg>