<?xml version="1.0" encoding="utf-8"?>
<svg version="1.1" xmlns:xlink="http://www.w3.org/1999/xlink" width="48px" height="47px" xmlns="http://www.w3.org/2000/svg">
  <g transform="matrix(1 0 0 1 -66 -569 )">
    <path d="M 90 569.5  C 103.16 569.5  113.5 579.62  113.5 592.5  C 113.5 605.38  103.16 615.5  90 615.5  C 76.84 615.5  66.5 605.38  66.5 592.5  C 66.5 579.62  76.84 569.5  90 569.5  Z " fill-rule="nonzero" fill="#cccccc" stroke="none" />
    <path d="M 90 569.5  C 103.16 569.5  113.5 579.62  113.5 592.5  C 113.5 605.38  103.16 615.5  90 615.5  C 76.84 615.5  66.5 605.38  66.5 592.5  C 66.5 579.62  76.84 569.5  90 569.5  Z " stroke-width="1" stroke-dasharray="3,1" stroke="#797979" fill="none" stroke-dashoffset="0.5" />
  </g>
</svg>