<?xml version="1.0" encoding="utf-8"?>
<svg version="1.1" xmlns:xlink="http://www.w3.org/1999/xlink" width="48px" height="47px" xmlns="http://www.w3.org/2000/svg">
  <g transform="matrix(1 0 0 1 -138 -569 )">
    <path d="M 162 569.5  C 175.16 569.5  185.5 579.62  185.5 592.5  C 185.5 605.38  175.16 615.5  162 615.5  C 148.84 615.5  138.5 605.38  138.5 592.5  C 138.5 579.62  148.84 569.5  162 569.5  Z " fill-rule="nonzero" fill="#ffffff" stroke="none" />
    <path d="M 162 569.5  C 175.16 569.5  185.5 579.62  185.5 592.5  C 185.5 605.38  175.16 615.5  162 615.5  C 148.84 615.5  138.5 605.38  138.5 592.5  C 138.5 579.62  148.84 569.5  162 569.5  Z " stroke-width="1" stroke-dasharray="3,1" stroke="#797979" fill="none" stroke-dashoffset="0.5" />
  </g>
</svg>