<?xml version="1.0" encoding="utf-8"?>
<svg version="1.1" xmlns:xlink="http://www.w3.org/1999/xlink" width="28px" height="28px" xmlns="http://www.w3.org/2000/svg">
  <g transform="matrix(1 0 0 1 -475 -192 )">
    <path d="M 27.3400673400673 20.9292929292929  C 27.7800224466891 21.3692480359147  28 21.9034792368126  28 22.5319865319865  C 28 23.1604938271605  27.7800224466891 23.6947250280584  27.3400673400673 24.1346801346801  L 24.1346801346801 27.3400673400673  C 23.6947250280583 27.7800224466891  23.1604938271605 28  22.5319865319865 28  C 21.9034792368126 28  21.3692480359147 27.7800224466891  20.929292929293 27.3400673400673  L 14 20.4107744107744  L 7.07070707070704 27.3400673400673  C 6.63075196408533 27.7800224466891  6.09652076318741 28  5.46801346801351 28  C 4.83950617283949 28  4.30527497194169 27.7800224466891  3.86531986531986 27.3400673400673  L 0.659932659932679 24.1346801346801  C 0.219977553310855 23.6947250280584  0 23.1604938271605  0 22.5319865319865  C 0 21.9034792368126  0.219977553310855 21.3692480359147  0.659932659932679 20.9292929292929  L 7.58922558922563 14  L 0.659932659932679 7.07070707070707  C 0.219977553310855 6.63075196408531  0 6.09652076318744  0 5.46801346801348  C 0 4.83950617283949  0.219977553310855 4.30527497194163  0.659932659932679 3.86531986531986  L 3.86531986531986 0.65993265993265  C 4.30527497194169 0.219977553310883  4.83950617283949 0  5.46801346801351 0  C 6.09652076318741 0  6.63075196408533 0.219977553310883  7.07070707070704 0.65993265993265  L 14 7.58922558922558  L 20.929292929293 0.65993265993265  C 21.3692480359147 0.219977553310883  21.9034792368126 0  22.5319865319865 0  C 23.1604938271605 0  23.6947250280583 0.219977553310883  24.1346801346801 0.65993265993265  L 27.3400673400673 3.86531986531986  C 27.7800224466891 4.30527497194163  28 4.83950617283949  28 5.46801346801348  C 28 6.09652076318744  27.7800224466891 6.63075196408531  27.3400673400673 7.07070707070707  L 20.4107744107744 14  L 27.3400673400673 20.9292929292929  Z " fill-rule="nonzero" fill="#000000" stroke="none" transform="matrix(1 0 0 1 475 192 )" />
  </g>
</svg>