<?xml version="1.0" encoding="utf-8"?>
<svg version="1.1" xmlns:xlink="http://www.w3.org/1999/xlink" width="28px" height="26px" xmlns="http://www.w3.org/2000/svg">
  <g transform="matrix(1 0 0 1 -716 -239 )">
    <path d="M 21.8203125 14.8450520833333  C 22.0512152777778 14.6306423611111  22.1666666666666 14.3767361111111  22.1666666666666 14.0833333333333  L 22.1666666666666 11.9166666666667  C 22.1666666666666 11.6232638888889  22.0512152777778 11.3693576388889  21.8203125 11.1549479166667  C 21.5894097222222 10.9405381944444  21.3159722222222 10.8333333333333  21 11  L 7 11  C 6.68402777777783 10.8333333333333  6.41059027777783 10.9405381944444  6.1796875 11.1549479166667  C 5.94878472222217 11.3693576388889  5.83333333333337 11.6232638888889  5.83333333333337 11.9166666666667  L 5.83333333333337 14.0833333333333  C 5.83333333333337 14.3767361111111  5.94878472222217 14.6306423611111  6.1796875 14.8450520833333  C 6.41059027777783 15.0594618055556  6.68402777777783 15.1666666666667  7 15  L 21 15  C 21.3159722222222 15.1666666666667  21.5894097222222 15.0594618055556  21.8203125 14.8450520833333  Z M 26.1223958333334 6.474609375  C 27.3741319444445 8.46636284722223  28 10.6414930555556  28 13  C 28 15.3585069444444  27.3741319444445 17.5336371527778  26.1223958333334 19.525390625  C 24.8706597222222 21.5171440972222  23.1723090277778 23.0941840277778  21.02734375 24.2565104166667  C 18.8823784722222 25.4188368055556  16.5399305555555 26  14 26  C 11.4600694444445 26  9.11762152777783 25.4188368055556  6.97265625 24.2565104166667  C 4.82769097222217 23.0941840277778  3.12934027777783 21.5171440972222  1.87760416666663 19.525390625  C 0.625868055555543 17.5336371527778  0 15.3585069444444  0 13  C 0 10.6414930555556  0.625868055555543 8.46636284722223  1.87760416666663 6.474609375  C 3.12934027777783 4.48285590277777  4.82769097222217 2.90581597222223  6.97265625 1.74348958333334  C 9.11762152777783 0.581163194444429  11.4600694444445 0  14 0  C 16.5399305555555 0  18.8823784722222 0.581163194444429  21.02734375 1.74348958333334  C 23.1723090277778 2.90581597222223  24.8706597222222 4.48285590277777  26.1223958333334 6.474609375  Z " fill-rule="nonzero" fill="#000000" stroke="none" transform="matrix(1 0 0 1 716 239 )" />
  </g>
</svg>