<?xml version="1.0" encoding="utf-8"?>
<svg version="1.1" xmlns:xlink="http://www.w3.org/1999/xlink" width="31px" height="28px" xmlns="http://www.w3.org/2000/svg">
  <g transform="matrix(1 0 0 1 -315 -192 )">
    <path d="M 30.3835227272727 10.7386363636364  C 30.7945075757576 11.1098484848485  31 11.5606060606061  31 12.0909090909091  L 31 15.9090909090909  C 31 16.4393939393939  30.7945075757576 16.8901515151515  30.3835227272727 17.2613636363636  C 29.9725378787879 17.6325757575758  29.4734848484849 17.8181818181818  28.8863636363636 17.8181818181818  L 19.7272727272727 17.8181818181818  L 19.7272727272727 26.0909090909091  C 19.7272727272727 26.6212121212121  19.5217803030303 27.0719696969697  19.1107954545455 27.4431818181818  C 18.6998106060606 27.8143939393939  18.2007575757576 28  17.6136363636364 28  L 13.3863636363636 28  C 12.7992424242424 28  12.3001893939394 27.8143939393939  11.8892045454545 27.4431818181818  C 11.4782196969697 27.0719696969697  11.2727272727273 26.6212121212121  11.2727272727273 26.0909090909091  L 11.2727272727273 17.8181818181818  L 2.11363636363637 17.8181818181818  C 1.52651515151513 17.8181818181818  1.02746212121212 17.6325757575758  0.616477272727252 17.2613636363636  C 0.205492424242379 16.8901515151515  0 16.4393939393939  0 15.9090909090909  L 0 12.0909090909091  C 0 11.5606060606061  0.205492424242379 11.1098484848485  0.616477272727252 10.7386363636364  C 1.02746212121212 10.3674242424242  1.52651515151513 10.1818181818182  2.11363636363637 10.1818181818182  L 11.2727272727273 10.1818181818182  L 11.2727272727273 1.90909090909093  C 11.2727272727273 1.37878787878788  11.4782196969697 0.928030303030312  11.8892045454545 0.556818181818187  C 12.3001893939394 0.185606060606062  12.7992424242424 0  13.3863636363636 0  L 17.6136363636364 0  C 18.2007575757576 0  18.6998106060606 0.185606060606062  19.1107954545455 0.556818181818187  C 19.5217803030303 0.928030303030312  19.7272727272727 1.37878787878788  19.7272727272727 1.90909090909093  L 19.7272727272727 10.1818181818182  L 28.8863636363636 10.1818181818182  C 29.4734848484849 10.1818181818182  29.9725378787879 10.3674242424242  30.3835227272727 10.7386363636364  Z " fill-rule="nonzero" fill="#000000" stroke="none" transform="matrix(1 0 0 1 315 192 )" />
  </g>
</svg>