<?xml version="1.0" encoding="utf-8"?>
<svg version="1.1" xmlns:xlink="http://www.w3.org/1999/xlink" width="32px" height="24px" xmlns="http://www.w3.org/2000/svg">
  <g transform="matrix(1 0 0 1 -716 -192 )">
    <path d="M 31.421935483871 3.31313131313129  C 31.8073118279569 3.69023569023568  32 4.14814814814815  32 4.68686868686871  C 32 5.2255892255892  31.8073118279569 5.68350168350167  31.421935483871 6.06060606060606  L 16.4748387096774 20.6868686868687  L 13.6670967741936 23.4343434343434  C 13.2817204301075 23.8114478114478  12.8137634408602 24  12.2632258064516 24  C 11.712688172043 24  11.2447311827957 23.8114478114478  10.8593548387096 23.4343434343434  L 8.05161290322576 20.6868686868687  L 0.578064516128961 13.3737373737374  C 0.192688172043063 12.996632996633  0 12.5387205387206  0 12  C 0 11.4612794612794  0.192688172043063 11.003367003367  0.578064516128961 10.6262626262626  L 3.38580645161301 7.87878787878788  C 3.77118279569891 7.50168350168349  4.23913978494625 7.31313131313129  4.7896774193548 7.31313131313129  C 5.34021505376336 7.31313131313129  5.8081720430107 7.50168350168349  6.19354838709683 7.87878787878788  L 12.2632258064516 13.8383838383838  L 25.8064516129032 0.565656565656582  C 26.1918279569893 0.188552188552194  26.6597849462366 0  27.2103225806452 0  C 27.7608602150538 0  28.2288172043011 0.188552188552194  28.614193548387 0.565656565656582  L 31.421935483871 3.31313131313129  Z " fill-rule="nonzero" fill="#000000" stroke="none" transform="matrix(1 0 0 1 716 192 )" />
  </g>
</svg>