<?xml version="1.0" encoding="utf-8"?>
<svg version="1.1" xmlns:xlink="http://www.w3.org/1999/xlink" width="23px" height="23px" xmlns="http://www.w3.org/2000/svg">
  <g transform="matrix(1 0 0 1 -97 -655 )">
    <path d="M 98 666.5  A 10.5 10.5 0 0 1 108.5 656 A 10.5 10.5 0 0 1 119 666.5 A 10.5 10.5 0 0 1 108.5 677 A 10.5 10.5 0 0 1 98 666.5 Z " fill-rule="nonzero" fill="#ffffff" stroke="none" fill-opacity="0" />
    <path d="M 97.5 666.5  A 11 11 0 0 1 108.5 655.5 A 11 11 0 0 1 119.5 666.5 A 11 11 0 0 1 108.5 677.5 A 11 11 0 0 1 97.5 666.5 Z " stroke-width="1" stroke-dasharray="3,1" stroke="#999999" fill="none" stroke-dashoffset="0.5" />
  </g>
</svg>