<?xml version="1.0" encoding="utf-8"?>
<svg version="1.1" xmlns:xlink="http://www.w3.org/1999/xlink" width="14px" height="19px" xmlns="http://www.w3.org/2000/svg">
  <g transform="matrix(1 0 0 1 -360 -205 )">
    <path d="M 13.5381944444445 0.3525390625  C 13.8460648148148 0.587565104166686  14 0.865885416666686  14 1.1875  L 14 17.8125  C 14 18.1341145833333  13.8460648148148 18.4124348958333  13.5381944444445 18.6474609375  C 13.2303240740741 18.8824869791667  12.8657407407408 19  12.4444444444445 19  C 12.0231481481482 19  11.6585648148148 18.8824869791667  11.3506944444445 18.6474609375  L 0.461805555555543 10.3349609375  C 0.153935185185219 10.0999348958333  0 9.82161458333331  0 9.5  C 0 9.17838541666669  0.153935185185219 8.90006510416669  0.461805555555543 8.6650390625  L 11.3506944444445 0.3525390625  C 11.6585648148148 0.117513020833314  12.0231481481482 0  12.4444444444445 0  C 12.8657407407408 0  13.2303240740741 0.117513020833314  13.5381944444445 0.3525390625  Z " fill-rule="nonzero" fill="#000000" stroke="none" transform="matrix(1 0 0 1 360 205 )" />
  </g>
</svg>