<?xml version="1.0" encoding="utf-8"?>
<svg version="1.1" xmlns:xlink="http://www.w3.org/1999/xlink" width="25px" height="14px" xmlns="http://www.w3.org/2000/svg">
  <g transform="matrix(1 0 0 1 -354 -164 )">
    <path d="M 24.5361328125 0.461805555555543  C 24.8453776041666 0.769675925925924  25 1.13425925925924  25 1.55555555555554  C 25 1.97685185185185  24.8453776041666 2.34143518518516  24.5361328125 2.64930555555554  L 13.5986328125 13.5381944444445  C 13.2893880208334 13.8460648148148  12.9231770833334 14  12.5 14  C 12.0768229166666 14  11.7106119791666 13.8460648148148  11.4013671875 13.5381944444445  L 0.4638671875 2.64930555555554  C 0.154622395833371 2.34143518518516  0 1.97685185185185  0 1.55555555555554  C 0 1.13425925925924  0.154622395833371 0.769675925925924  0.4638671875 0.461805555555543  C 0.773111979166629 0.153935185185162  1.13932291666663 0  1.5625 0  L 23.4375 0  C 23.8606770833334 0  24.2268880208334 0.153935185185162  24.5361328125 0.461805555555543  Z " fill-rule="nonzero" fill="#000000" stroke="none" transform="matrix(1 0 0 1 354 164 )" />
  </g>
</svg>